#!OML:ASF H:\MichaelJackson\Top Level 1\Subject 1\Session 1\male.ASF
:FULLY-SPECIFIED
:DEGREES
402
root -14.8861 16.7444 -3.41369 7.23324 5.65743 6.07675
lowerback 1.92383 -1.11817 -4.28019
upperback 1.57646 -1.53552 -2.69417
thorax 0.579344 -0.788547 -0.346351
lowerneck -6.42491 -2.21108 0.00826586
upperneck 4.3566 -3.08645 2.26183
head 2.53179 -1.4621 0.593257
rclavicle 2.78795e-014 9.34288e-015
rhumerus -49.4338 -7.17533 -84.5937
rradius 41.5706
rwrist 9.58328
rhand -25.1152 -21.9634
rfingers 7.12502
rthumb 1.40033 -771.939
lclavicle 2.78795e-014 9.34288e-015
lhumerus -1.9206 -14.1867 69.4358
lradius 45.5421
lwrist -9.28012
lhand -13.5108 10.6833
lfingers 7.12502
lthumb 12.6007 40.2832
rfemur -42.4069 -3.85228 16.0323
rtibia 44.248
rfoot -1.88951 -6.05311
rtoes 4.14884
lfemur -7.17844 3.64351 -26.6273
ltibia 32.8293
lfoot -30.3986 -4.1329
ltoes 9.3611
403
root -14.8862 16.748 -3.27339 7.28194 5.3417 5.73003
lowerback 1.79267 -1.08871 -3.98291
upperback 1.55342 -1.48651 -2.53169
thorax 0.624019 -0.763085 -0.348234
lowerneck -6.46684 -2.14059 0.132226
upperneck 4.33902 -2.9904 2.04592
head 2.52566 -1.41906 0.506478
rclavicle -2.73329e-015 2.64384e-014
rhumerus -49.6592 -7.41336 -84.4252
rradius 41.9935
rwrist 9.29883
rhand -25.1804 -22.1668
rfingers 7.12502
rthumb 1.33735 -772.142
lclavicle -2.73329e-015 2.64384e-014
lhumerus -3.39024 -14.7329 69.7388
lradius 46.7072
lwrist -7.7555
lhand -9.18645 9.03128
lfingers 7.12502
lthumb 16.7669 38.3273
rfemur -42.0354 -3.83405 16.6751
rtibia 44.4066
rfoot -2.55513 -6.2959
rtoes 4.52738
lfemur -6.94639 3.24547 -26.3682
ltibia 33.2726
lfoot -30.2962 -2.98662
ltoes 7.57109
404
root -14.8868 16.7565 -3.1324 7.34579 4.98773 5.38491
lowerback 1.65386 -1.04666 -3.68344
upperback 1.53152 -1.42114 -2.37907
thorax 0.673763 -0.729345 -0.361798
lowerneck -6.51046 -2.06393 0.26089
upperneck 4.32007 -2.88779 1.84875
head 2.52015 -1.37209 0.425244
rclavicle 4.67144e-015 -1.2921e-014
rhumerus -49.8618 -7.62894 -84.2939
rradius 42.392
rwrist 8.99938
rhand -25.3363 -22.3598
rfingers 7.12502
rthumb 1.18672 -772.336
lclavicle 4.67144e-015 -1.2921e-014
lhumerus -4.94069 -14.8355 70.2162
lradius 47.8968
lwrist -6.12748
lhand -4.27986 7.6116
lfingers 7.12502
lthumb 21.4852 36.4401
rfemur -41.627 -3.80197 17.3063
rtibia 44.4193
rfoot -3.0806 -6.43445
rtoes 4.91004
lfemur -6.80697 2.95444 -26.113
ltibia 33.8474
lfoot -30.0379 -1.95009
ltoes 5.63469
405
root -14.8882 16.769 -2.99116 7.42273 4.61103 5.04851
lowerback 1.50893 -0.994844 -3.39287
upperback 1.51301 -1.34332 -2.23851
thorax 0.730499 -0.689379 -0.382984
lowerneck -6.53967 -1.98729 0.403027
upperneck 4.28626 -2.78692 1.66429
head 2.50751 -1.32558 0.34596
rclavicle -7.50412e-015 -1.39149e-014
rhumerus -50.0316 -7.83122 -84.1999
rradius 42.7563
rwrist 8.70808
rhand -25.5458 -22.5608
rfingers 7.12502
rthumb 0.984453 -772.538
lclavicle -7.50412e-015 -1.39149e-014
lhumerus -6.52922 -14.4841 70.835
lradius 49.0308
lwrist -4.32486
lhand 1.16767 6.35233
lfingers 7.12502
lthumb 26.7083 34.4876
rfemur -41.1707 -3.74756 17.905
rtibia 44.3048
rfoot -3.57717 -6.48764
rtoes 5.41209
lfemur -6.78867 2.77195 -25.8601
ltibia 34.6029
lfoot -29.6001 -1.07005
ltoes 3.60383
406
root -14.8909 16.7845 -2.85012 7.51367 4.22268 4.72995
lowerback 1.36517 -0.93806 -3.12351
upperback 1.49525 -1.26001 -2.11117
thorax 0.787892 -0.646661 -0.405783
lowerneck -6.57159 -1.91238 0.548947
upperneck 4.25799 -2.69011 1.49902
head 2.49805 -1.28037 0.271993
rclavicle 1.31198e-014 -2.5842e-015
rhumerus -50.1722 -8.00844 -84.1491
rradius 43.0819
rwrist 8.42686
rhand -25.8139 -22.7434
rfingers 7.12502
rthumb 0.72553 -772.722
lclavicle 1.31198e-014 -2.5842e-015
lhumerus -8.11898 -13.7044 71.5498
lradius 50.0448
lwrist -2.19422
lhand 7.09848 5.39156
lfingers 7.12502
lthumb 32.3694 32.5227
rfemur -40.6594 -3.65312 18.4443
rtibia 44.086
rfoot -4.08258 -6.47896
rtoes 5.74655
lfemur -6.92289 2.71775 -25.6086
ltibia 35.5843
lfoot -28.9907 -0.397773
ltoes 1.59039
407
root -14.8952 16.8023 -2.70986 7.61418 3.82818 4.42823
lowerback 1.23497 -0.873379 -2.87201
upperback 1.47281 -1.16787 -2.0027
thorax 0.833204 -0.59932 -0.437508
lowerneck -6.60837 -1.84118 0.694143
upperneck 4.24903 -2.60072 1.36806
head 2.49703 -1.23756 0.20868
rclavicle 3.03147e-015 3.22031e-014
rhumerus -50.2931 -8.18597 -84.14
rradius 43.3663
rwrist 8.17831
rhand -26.1011 -22.9259
rfingers 7.12502
rthumb 0.448058 -772.905
lclavicle 3.03147e-015 3.22031e-014
lhumerus -9.67955 -12.5715 72.3075
lradius 50.9029
lwrist 0.448048
lhand 13.3552 4.91933
lfingers 7.12502
lthumb 38.3013 30.636
rfemur -40.0895 -3.49688 18.9144
rtibia 43.7798
rfoot -4.6449 -6.44349
rtoes 6.18088
lfemur -7.23202 2.80565 -25.3484
ltibia 36.8289
lfoot -28.1928 0.0485053
ltoes -0.33922
408
root -14.901 16.8215 -2.57085 7.72492 3.43537 4.15469
lowerback 1.11443 -0.806051 -2.65277
upperback 1.44804 -1.07345 -1.91073
thorax 0.871483 -0.550894 -0.467752
lowerneck -6.67057 -1.77453 0.839062
upperneck 4.2798 -2.51977 1.25916
head 2.5148 -1.1978 0.151645
rclavicle 8.19987e-015 1.74931e-014
rhumerus -50.3919 -8.35171 -84.1677
rradius 43.6104
rwrist 7.97293
rhand -26.3988 -23.0993
rfingers 7.12502
rthumb 0.160571 -773.079
lclavicle 8.19987e-015 1.74931e-014
lhumerus -11.1773 -11.1295 73.0705
lradius 51.5765
lwrist 3.72906
lhand 19.57 5.10734
lfingers 7.12502
lthumb 44.1343 28.94
rfemur -39.468 -3.2888 19.3045
rtibia 43.4019
rfoot -5.25898 -6.38972
rtoes 6.57441
lfemur -7.73585 3.0423 -25.087
ltibia 38.3576
lfoot -27.2238 0.235044
ltoes -1.96075
409
root -14.9083 16.8418 -2.43362 7.84278 3.04287 3.89135
lowerback 1.00945 -0.732647 -2.44447
upperback 1.41826 -0.972213 -1.83358
thorax 0.896226 -0.498896 -0.506587
lowerneck -6.74052 -1.71487 0.976151
upperneck 4.33493 -2.44982 1.17983
head 2.54309 -1.16242 0.104707
rclavicle 1.88845e-015 -4.01545e-014
rhumerus -50.4749 -8.51175 -84.2316
rradius 43.8175
rwrist 7.81534
rhand -26.6949 -23.2484
rfingers 7.12502
rthumb -0.125455 -773.228
lclavicle 1.88845e-015 -4.01545e-014
lhumerus -12.5901 -9.45243 73.796
lradius 52.0665
lwrist 7.7056
lhand 25.3846 6.34453
lfingers 7.12502
lthumb 49.5141 27.8187
rfemur -38.8077 -3.03039 19.6434
rtibia 42.9632
rfoot -5.90756 -6.32066
rtoes 7.09095
lfemur -8.44539 3.44005 -24.8032
ltibia 40.1783
lfoot -26.0692 0.165161
ltoes -3.15357
410
root -14.9166 16.8628 -2.29833 7.95684 2.65129 3.61798
lowerback 0.929559 -0.655745 -2.22705
upperback 1.3884 -0.86761 -1.76088
thorax 0.907058 -0.444986 -0.554571
lowerneck -6.82898 -1.66001 1.10641
upperneck 4.40989 -2.38715 1.11276
head 2.58203 -1.13012 0.0622347
rclavicle 7.55382e-015 5.76476e-015
rhumerus -50.5367 -8.65085 -84.3261
rradius 44.001
rwrist 7.70765
rhand -26.9531 -23.4053
rfingers 7.12502
rthumb -0.374838 -773.385
lclavicle 7.55382e-015 5.76476e-015
lhumerus -13.8999 -7.57693 74.4582
lradius 52.3879
lwrist 12.3018
lhand 30.174 8.7875
lfingers 7.12502
lthumb 53.8634 27.7175
rfemur -38.1144 -2.73253 19.9661
rtibia 42.4756
rfoot -6.55719 -6.23581
rtoes 7.75818
lfemur -9.35377 3.97923 -24.4775
ltibia 42.2823
lfoot -24.6901 -0.122294
ltoes -3.89328
